<svg width="200" height="200" viewBox="0 0 200 200" fill="none" xmlns="http://www.w3.org/2000/svg">
<path d="M51.2827 75.7173L18 92.3587L51.2827 109V75.7173Z" fill="#F27D2D"/>
<path d="M51.2827 75.7173L18 92.3587L51.2827 109V75.7173Z" fill="#BB4C00"/>
<path d="M147.386 110L181.23 93.0773L146.561 75.7427L116.618 93.0773L147.386 110Z" fill="#CF2028"/>
<path d="M147.386 110L181.23 93.0773L146.561 75.7427L116.618 93.0773L147.386 110Z" fill="#950007"/>
<path d="M79.2115 93.192L126.489 65.8213L99.6155 52.384L72.4102 65.9867V120.397L99.6155 134L127.791 119.911L79.2115 93.192Z" fill="#0970B7"/>
<path d="M79.2115 93.192L126.489 65.8213L99.6155 52.384L72.4102 65.9867V120.397L99.6155 134L127.791 119.911L79.2115 93.192Z" fill="#002982"/>
</svg>
